<svg fill="#6e97cc" id="a" data-name="Livello 1" xmlns="http://www.w3.org/2000/svg" viewBox="0 0 487.47567 192.46834">
  <path d="M359.14001,172.03999c0,3.31-2.28,5.78-5.26999,5.75l-7.39999-.07001c-2.45013-.34255-3.75598-1.77941-4.3181-3.76611-.22077-.78025-1.18371-1.05226-1.81045-.53775-3.67839,3.01968-7.95347,4.87342-12.74019,5.50751-1.52411.2019-3.07681.14363-4.59797-.07937-13.11646-1.92283-21.39978-5.28935-25.69329-15.76427-4.74528-11.57712-5.35783-23.33842.03136-33.78461.01894-.03672.03967-.07362.06115-.10892,8.75952-14.39848,23.98727-18.36021,37.76358-13.56876.04244.01476.08577.03151.12705.04925,1.97957.85065,3.50431,2.0174,5.05339,3.32483.63929.53956,1.596.21608,1.83693-.58502.77953-2.59203,2.73124-4.28401,5.50654-3.83676l6.28.05c2.92001.02,5.13,2.41,5.14001,5.43l.0015,3.90523.00042,1.10362c-.11197,2.25116-.11197,5.25116.00037,7.00427.00099.26787.00167.53843.00264.81162l.00303,7.88208c-.00104.28985-.00159.58061-.00369.87069-.11432,2.68249-.11432,4.68249.00708,7.94682l.00034.87671.00193,5.00745c-.00196.27044-.00297.53932-.00517.80648-.1185,3.04503-.1185,6.04503-.00419,9.24058.01086.39591.01226.77905.01366,1.14685l.00207,5.3776h.01001l-.00003.00999ZM327.34,163.21001c6.31541-.15334,11.9157-2.66848,13.98469-8.54387.18378-.52188.31171-1.05768.48322-1.58372,1.98476-6.08727,1.48685-9.83569-.31792-14.3524-2.89395-7.15018-7.92954-9.78787-13.56-9.50999-7-.42-13.26001,3.32001-15.72,9.98-1.64999,4.46001-1.14663,8.95611-.04001,13.88,1.48789,6.19556,8.07001,10.3,15.17001,10.13h0v-.00002Z"/>
  <path d="M484.09852,179.31148h-12.29001c-1.12,0-2.23001-.34-2.95001-1.3l-16.74862-22.26314c-1.70798-2.27034-5.32276-1.06964-5.33293,1.7714l-.02231,6.23234-.00302.84406c-.4931,3.68534-.4931,6.68534-.04118,10.51819.00219.31568.00141.59187.0006.8186l-.00254.70855c0,1.49001-1.59,2.53999-2.89999,2.67999l-11.26999-.06c-1.73999,0-2.95001-1.33-2.95001-3.17999v-.81015c0-.26477.00117-.59184.00976-.97804.66025-3.01182-.33975-7.01182-.00969-9.65428-.00007-.21725-.00007-.43693-.00007-.65895v-25.56198c.00233-.30312.00393-.60669.0078-.9106-.32754-3.12816-.33747-6.04383-.02677-8.8972l.01479-1.23564c-.29532-3.83486.54112-6.69333.1201-10.51428l-.1159-1.74619v-27.1727c0-1.79,1.16-3.2,2.85-3.2h10.73933c1.34-.02,3.55068,1.13,3.55068,2.67l.05116,48.88401c.00293,2.80152,3.5317,4.03583,5.28021,1.84694l16.60748-20.79037c.55172-.69067,1.3829-1.09907,2.26676-1.11376l3.58108-.0595c.23609-.00392.47742-.00734.72215-.00834,3.02117.11102,7.48812-.10555,9.32489.36433.32146.1105.47096.34983.65893.56702.18797.21719.34234.45969.45734.71969.41.94.54001,2.31-.32999,3.37l-19.03778,23.04721c-.88839,1.07549-.90669,2.62487-.04396,3.72104l20.51173,26.06176c.82999,1.05.85001,2.38.42001,3.42999-.45001,1.10001-1.64001,1.86-3.09,1.86h-.01001v-.00002Z"/>
  <path d="M152.10001,178.28l-1.02754,1.55999c-.11898.18063-.24445.37111-.37424.56817-1.69823,1.90184-3.69823,4.90184-4.90446,7.44616-.14207.21551-.2863.43436-.43045.6532l-2.30637,3.50149c-.40454.61416-1.30612.61206-1.70779-.00399l-1.03047-1.58048-.33315-.51097c-.98554-2.60356-2.98554-4.60356-4.81921-7.39143l-.41903-.64268-2.12535-3.25974c-.13048-.20012-.32918-.345-.55836-.41244-8.72206-2.56666-15.73064-8.5143-19.81224-16.15536-3.19334-5.97817-4.24225-17.09599-3.22455-20.03046.01624-.04682.02712-.09072.03407-.13978,1.41281-9.97628,6.7179-18.42826,15.45264-23.69766.03738-.02255.0755-.04333.11475-.06244,9.86555-4.80324,24.92315-6.18861,35.79175.38843,9.69283,5.8696,14.13485,14.60182,15.65197,26.87472.00531.04295.00869.08725.00986.13051.4112,15.2128-9.96653,28.63296-23.98182,32.76477h-.00002ZM158.95,146.63c0-9.23-7.48-16.70999-16.71001-16.70999-7.85249,0-13.86722,5.32449-15.97351,12.6734-3.59568,12.54543,4.53233,21.6917,17.54375,20.68193,9.65415-.74923,15.13976-7.87999,15.13976-16.64533h.00002Z"/>
  <path d="M407.91,176.96001c-4.20084,1.41484-8.51484,2.12877-12.77788,2.1709-.38755.00383-.77468.00211-1.16046-.00572-3.50341.00979-6.77448-.72887-10.99652-1.77593-.20632-.05117-.41666-.11014-.61868-.17628-.26132-.08555-.52169-.17386-.78107-.26492-3.95652-1.38899-7.68303-3.41804-11.01539-6.05804-1.72-1.36-2.80611-4.06783-1.28-5.08l6.41-6.52c1.26999-1.28999,3.01001-.96001,4.31.13,2.89879,2.89,6.59957,4.60158,10.19175,5.36038.22451.04742.4486.09116.67188.1315,2.13637.43812,4.13637.43812,5.70537.22598.39593-.03921.77309-.09488,1.13773-.16282,2.91707-.54345,5.04259-1.87046,5.46597-3.75538.05062-.22537.07691-.45872.07731-.69965-.25-2.17001-.25-3.17001-1.62244-4.00953-.20468-.16941-.42548-.33323-.66161-.49099-7.31991-4.8993-29.36727-3.98132-29.50596-22.58948-.01031-1.35281.08564-2.63408.27955-3.845.0391-.24398.08217-.4851.12956-.72353.06191-.31145.15003-.61712.25218-.91778.98191-2.89013,2.00976-5.72131,4.52193-8.16739.24522-.25091.50453-.49516.77145-.73213,4.80447-4.26551,12.04033-6.1548,19.91533-5.92418,3.4695.1035,6.86002.63428,10.04673,1.66705.21824.07073.43552.14381.6518.21927.26915.0939.53713.20623.79508.32756,2.28256,1.0736,4.29531,1.60722,6.99,3.87796.2318.19533.50595.34721.73987.53999.17466.14394.34783.29044.51949.43954.28663.24895.56903.50513.84703.76863,1.34,1.27,2.45415,2.9198,1.04001,4.86,0,0-.2668.268-.69522.69655-2.26477,1.83343-3.94555,3.92419-5.97482,6.00343-.15793.16182-.32322.31296-.54487.40432-1.10823.4568-3.10011-.12763-4.22509-1.0943-6.57001-5.67-18.63-5.05-19.25-.03999-.13867,1.11058.1758,2.01398.84074,2.77964.16624.19141.35449.37445.56149.55165,2.09566,2.00646,4.73617,3.01704,7.25019,3.26228l1.62836.28274c5.43949,1.56243,11.87403,3.4037,16.25345,7.58594.16712.1596.33125.3226.49221.48912,1.70357,1.6086,3.70357,4.6086,4.1358,7.71508.06067.26759.11614.54008.16625.81758.15032.8325.25235,1.71013.30152,2.63596.03667.69167.04188,1.37833.01579,2.05789-.01304.33978-.03393.67778-.0627,1.01375.14692,2.36835-.85308,4.36835-1.35453,5.77016-.12149.30201-.25074.60039-.38767.89489-.27387.589-.57838,1.16248-.91338,1.71831-.18273.30318-.37452.60112-.57537.89346-.62213,1.09152-1.62213,2.09152-2.84252,3.21794-.27277.24216-.55448.47736-.84511.70526-1.45312,1.1395-3.12905,2.09653-5.0245,2.82834h0v-.01001Z"/>
  <path d="M271.57001,179.15995c-.57001.15005-2.57001.15005-3.99001.00798-.3225.01777-.65156.03331-.98515.04248-2.33512.06415-4.89196-.18388-6.97175-2.16814-.16635-.26187-.30881-.54304-.42482-.8407-.23203-.59531-.35828-1.25656-.35828-1.96157l-.00112-2.41977-.00046-.98895c.16158-1.52128.16158-4.52128-.00277-6.77536-.00027-.26618-.00048-.53551-.00074-.80773l-.01407-30.35895c-.00046-.9883-.80176-1.78924-1.79007-1.78924h-7.83076c-2.72.00999-4.86-1.78999-5.10001-4.51l.02-6.37c.33-2.43,2.10001-4.24,4.61-4.24h.35656c.2269.00028.55105.00068.94002.00299,1.97341.32701,3.97341.32701,5.70495-.00299h1.29658c.98542,0,1.78553-.79645,1.79005-1.78186l.04974-10.84772.0038-.8285c.06415-1.10597.09622-2.40895.10096-3.74209.00118-.33328.00066-.66845-.0015-1.00279-.97117-4.46706,1.02883-8.46706,5.81987-8.09666.3632-.00029.78702-.00034,1.24113-.00039h5.29785c2.82001,0,4.81,2.12,4.81,4.9l-.00518,3.69636c-.00073.21842-.00128.44356-.00209.67459-.13274,2.35904-.13274,5.35904-.0117,7.85476.00052.26463.00052.52673.00073.78548l-.00924,6.58624c-.00139.98961.80046,1.79258,1.79006,1.79258h8.31741c2.60999,0,4.51001,2,4.67001,4.56v5.72c-.01001,2.66-1.98999,4.81001-4.67999,4.82l-8.32263.01647c-.98757.00195-1.78698.80332-1.78652,1.79089l.00096,2.067c.00015.32742.00018.68937-.00072,1.08264-.05055,1.64149-.07583,2.96224-.07678,4.29641-.00024.33354.00102.66792.00356,1.00837-.02788,2.97821-.02788,4.97821-.00089,8.00598.00151.33724.00433.67847.00848,1.0235.01245,1.03508.03687,2.1043.07372,3.20242.00067.30421.00113.60842.00167.91237l.00916,19.77395c0,2.27501-1.27094,4.30501-3.52474,4.78365-.32197.06836-.664.10507-1.02525.1263l-.00003-.00002Z"/>
  <path d="M198.19,179.32001l-3.47761-.0122-.79739-.0028c-.915.00499-1.915.00499-2.93891-.0107-.80172-.00246-1.33609-.0043-1.33609-.0043-1.775,0-3.70462-.66793-4.22754-2.71244-.10436-.4089-.15245-.87288-.13082-1.39815-.28164-1.86943-.28164-4.86943.00044-7.27618-.00149-.45171-.00179-.92169-.00208-1.40839v-21.78162c-.28-4.40323-.28-8.40323,0-12.78732v-22.60629c0-.21436,0-1.12626,0-.63991v-.63343c0,.10379,0-.08307,0-.62675,0,.39502,0-.41442,0-.61991v-17.8896c0-2.54,2.17-4.11,4.37-4.12l4.14-.015c.5175-.00187,1.035-.00336,1.51901-.00257,6.691-.46245,7.691,4.53755,7.08996,10.09194.00096.28614.00103.58259.00103.88744v1.93351c.00013.31871.00027.64448.00053.97705-.40052,3.64761-.40052,8.64761-.11163,12.68167.03142.40464.06701.82005.10656,1.24828.00136.33608.00227.67415.00454,1.01408v3.71471c-.39999,13.98887-.39999,27.98887-.00006,42.43747.00006.26142.00006.52048.00006.7771v14.63431c0,2.38-1.99001,3.88-4.2,4.14h0l-.00999.00999Z"/>
  <path d="M229.68658,179.25999c-1.68658.05-2.68658.05-4.38158.025l-.8235.00466-3.5915.02034c-2.3,0-4.39999-2.17999-4.39999-4.67v-9.24322c.00095-.2897.00134-.5843.00202-.8835.50797-3.20329.50797-5.20329-.00164-7.91725-.00019-.35444-.00028-.71117-.00037-1.06992,0-1.07625,0-2.17063,0-3.27536v-31.30075c0-2.79,2.32001-4.8,4.85001-4.81l2.74218-.01128c.29534-.00122.59911-.00247.9029-.00372,2.0149.185,3.0149.185,4.64121.07005.32627.05712.64535.14269.95261.2548.9218.33633,1.73707.91137,2.3219,1.67608.19494.2549.36428.53088.50342.82611,1.59577,4.35796-.40423,8.35796.43484,12.02401.00089.28191.00095.56828.00095.85819v27.2896c.15999,3.18616.15999,6.18616,0,9.23656v1.22662c.15999,2.72298,1.15999,8.72298-4.16394,9.66298l.01051.00999Z"/>
  <path d="M225.17999,85.49c5.4621,0,9.58536,4.4364,9.89,9.89.35153,6.29304-4.4279,9.89-9.89,9.89s-9.89-4.4279-9.89-9.89,4.4279-9.89,9.89-9.89Z"/>
  <path d="M128.50999,31.79c-2.92846-7.17231-6.958-11.30213-13.28094-17.2647-.29228-.27563-.6371-.49008-.96151-.72598-3.13304-1.89869-5.26755-3.48932-8.30498-5.0758-.36642-.18596-.73507-.36733-1.10585-.54541C95.95799,3.90432,85.83538,1.45462,76.06.07c-.35-.05-.7-.07-1.05-.07l-11.36.17c-.25,0-.5.02-.75.05-3.09673.35994-6.18553.92437-9.23907,1.68112-.38169.09459-.76291.19119-1.1417.2889-2.51923,1.11998-5.51923,1.11998-8.98575,2.9835-.37247.14155-.73922.29076-1.10455.44308-6.57593,2.74162-12.80029,6.37976-18.36164,10.77568-.32712.25857-.65197.51978-.97445.78357-3.09282,3.13415-6.09282,5.13415-8.08404,7.73311-.27851.30696-.55071.61771-.81993.93078C6.92593,34.28673,1.84375,44.41876.19,55.68c-.05.31-.07.63-.07.95l-.12,10.87c0,.43.03.85.1,1.27,3.14,17.28,14.42,40.26,31.09,50.36.26.16.51.34.74.54,7.13,6.09,16.32278,11.80472,17.92,21.98,1.4404,9.17625-1.25,17.8-6.88,24.91-1.60149,2.0177-2.13873,4.28919-2.04872,6.59964.09496,2.43752,1.361,4.76905,3.57545,5.79214.17363.08022.3503.15067.53077.20947.3875.12625.79287.19911,1.22798.20493,2.8084-.04214,5.76049-.05267,8.58748.13288.31411.02062.62668.04366.93733.06934,1.49135-.07383,3.04639-.12657,4.62474-.16429.39459-.00943.79084-.01793,1.18903-.02532,1.10149-.0172,2.2401-.0301,3.39445-.04007.38505-.00332.77184-.00632,1.16207-.00905.57731-.00234,1.15676-.0044,1.73887-.00627.29106-.00093.58295-.00181.87648-.00265.24924-.00051.49795-.001.7462-.00147.24825-.00047.49605-.00091.74346-.00134,1.37221-.00397,3.05831-.00596,4.79725-.00734.348-.00028.6981-.00053,1.04983-.00077,3.89733.00017,8.89733.00017,12.70384-.1013.25116-.00834.50723-.01741.7676-.02726.52074-.01971,1.05841-.04255,1.61725-.0689l.8993-.00496,3.15933-.01741c3.22923-.08756,5.45-2.14,5.17-5.63-1.36-16.60001-7.74-31.75999-16.51-45.69-3.1-4.93-5.25-9.78-8.86-14.4-5.16-6.61-10.02-13.14-14.79-20.06-8.33-12.1-14.7-26.78-9.32-40.82,2.61-6.81,8.07-11.84,14.04-13.81,7.67-2.52,15.08-.76,21.19,3.43,4.44,3.05,7.85,6.75,9.07,12.06,1.3,5.65-1.14,11.43-6.36,14.03-4.01,2-8.2.39-10.75-3.08-.86-1.16-2.45-.73-3.21-.3-3.74,2.09-1.04,13.68,6.34,20.35,7.35,6.65,17.7,9.26,27.3,6.33,7.64-2.33,16.88-12.09,20.33-19.16,5.10001-10.48,4.45-28.54,0-39.44l-.39999-1.13.01999.02002ZM42.05,46.62c.81-.5,1.8-.39,2.53-.05,2.42541.61937,2.04358,7.81952-.9,9.12-1.58,1.01-3.48.26-4.11-1.26-1.18-2.88-.18-6.16,2.47-7.81h.01ZM39.18,72.24c-2.2254-3.50573-1.5-9.25,1.75-9.59,1.24-.13,2.36.49,3.19,1.68,2.25,3.26,1.53531,8.85094-1.91,9.3-1.05.19-2.44613-.54538-3.03-1.4h0v.01ZM81.7,137.36c.99-.25,2.06.07001,3.01.84,4.41,3.60001,4.37907,10.46197.97,11.85001-.89.34-2.19.22-3.19-.48-3.18-2.25-4.46-6.52-3.13-10.19.41-1.12,1.49-1.81,2.35-2.02h-.01ZM70.79,123.59c.57-2.04,2.8-2.75,4.58-1.74,3.06,1.73,4.37068,4.97322,3.96,8.75001-.67544,1.80897-2.3,3.22-4.49,2.2-3.44-1.59-4.87439-4.7355-4.04-9.2h0l-.01-.01001ZM59.96,106.85c1.13657-.43842,1.98326-.60348,2.84-.15,4.07695,1.01522,6.38,8.77,3.59,10.73-.76.53-1.44789.66797-3.09.25-5.27-2.3-6.11-9.27-3.35-10.81h0l.01-.02ZM52.45,93.42c3.78701,1.09482,5.9569,8.44807,3.42,9.96-.65.45-1.97.64-2.89.28-3.06-1.2-4.84-4.34-4.59-7.65.65809-2.07029,2.07-3.32,4.05-2.6h0l.01.01ZM48.7,87.87c-.54316,1.2262-2.47843,1.81-4.12,1.03-2.68-1.69-3.88-4.94-3.1-7.97.28-1.06,1.08-1.87,1.75-2.1.97-.33,2.17672-.25894,2.96.36,1.86498.87495,3.99,5.52,2.5,8.68h.01ZM50.52,43.36c-1.16.25-2.06-.32-2.49-.74-.64-.62-.87-1.54-.67-2.57.47-2.47,2.52-4.47,5.05-4.74.94-.1,1.78.12,2.3.64.37.36.75,1.2.7,2.1-.16,2.57-2.2,4.74-4.88,5.3l-.01.01001ZM64.53,35.53c-1.74.6-3.98.63-5.2-.83-.79-.95-.62-2.18-.13-3.01.61-1.02,1.50573-1.78235,2.82-2.1,1.89-.67,5.11-.5,5.5,2.1.51075,1.77261-1.78,3.42-2.99,3.84ZM83.97,73.04c-.28,1.57-2.22,1.78-3.5,1.47-.93-.24-2.47-1.05-2.28-2.61.19-1.48,1.86-1.97,2.99-1.78,1.24.2,3.1,1.07,2.77,2.92h.02ZM93.16,73.77c-1.1.71-1.97.96-2.92.93-.81-.02-2.12-.72-2.2-1.86-.12-1.53,1.1-2.58,2.18-2.98,1.18-.46,2.82-.65,3.78.45.88,1.03.32,2.71-.83,3.45h0l-.01.01001ZM79.67,34.91c-1.40423.72496-4.47.53-6.29-.99-1.1-.92-1.48-2.95-.21-3.98,2.29-1.87,5.68266-.968,7.6,1.17.96,1.4.32,3.18-1.1,3.81v-.01ZM91.49,38.46c-.97,1.69-3.54,1.1-4.93.13-1.21-.84-2.88-2.84-1.68-4.63,1.09-1.64,3.53-1.08,4.86-.19,1.29.87,2.94,2.65,1.75,4.7v-.01ZM94.41,46.06c-.94-1.33-1.63-3.9,0-5.06,1.67-1.18,3.66.06,4.58,1.47.79,1.19,1.72,3.56.03,4.87-1.71,1.33-3.73-.02-4.62-1.28h.01ZM97.89,67.91c-2.17-.65-1.83-3.67-.68-5.1.7-.88,1.32-1.27,2.21-1.29,1.05-.02,1.87.49,2.09,2.12.27,2.11-1.43,4.92-3.6,4.27h-.02ZM99.91,58.23c-1.42-.51-2-2.03-2.1-3.14-.14-1.53.11-3.16,1.67-3.94,1.05-.52,2.07,0,2.6.6.78.88,1.16,1.82,1.13,3.44-.02,2.01-1.49,3.69-3.3,3.04Z"/>
</svg>