<?xml version="1.0" encoding="UTF-8"?>
<svg id="Livello_1" data-name="Livello 1" xmlns="http://www.w3.org/2000/svg" viewBox="0 0 477.03 180.31">
  <defs>
    <style>
      .cls-1 {
        fill: #6e97cc;
      }

      .cls-2 {
        fill: #6d97cb;
      }
    </style>
  </defs>
  <path class="cls-1" d="M349.33,160.55c0,3.31-2.28,5.78-5.27,5.75l-7.4-.07c-2.67-.03-4.42-2.71-4.63-5.63-4.59,4.37-10.22,6.76-16.7,7.05-11.75.53-22.37-5.46-27.83-16.06s-5.36-23.38.06-33.84c7.23-13.96,23.58-19.64,37.86-13.6,2.64,1.12,4.47,2.8,6.61,4.63.29-3.59,2.65-5.72,5.85-5.7l6.28.05c2.92.02,5.13,2.41,5.14,5.43l.02,51.98ZM317.53,151.72c6.59-.16,11.84-3.77,14.18-9.65,1.89-4.73,1.86-10.1-.03-14.83-2.31-5.76-7.48-9.14-13.56-9.51-7-.42-13.26,3.32-15.72,9.98-1.65,4.46-1.65,9.41-.04,13.88,2.32,6.41,8.07,10.3,15.17,10.13Z"/>
  <path class="cls-1" d="M473.66,166.34h-12.29c-1.12,0-2.23-.34-2.95-1.3l-22.05-29.31-.1,27.94c0,1.49-1.59,2.54-2.9,2.68l-11.27-.06c-1.74,0-2.95-1.33-2.95-3.18v-88.14c0-1.79,1.16-3.2,2.85-3.2h11.38c1.34-.02,2.91,1.13,2.91,2.67l.06,57.33,22.75-28.48,13.24-.22c1.35-.02,2.44.74,2.9,1.78.41.94.54,2.31-.33,3.37l-20.56,24.89,21.99,27.94c.83,1.05.85,2.38.42,3.43-.45,1.1-1.64,1.86-3.09,1.86Z"/>
  <path class="cls-2" d="M141.92,165.28l-9.9,15.03-9.78-15c-16.14-4.71-26.09-19.97-23.77-36.66,1.4-10.03,7.13-18.22,15.92-23.5,11.03-6.2,24.96-6.23,35.85.36,9.71,5.88,15.33,15.71,15.66,26.94.44,15.24-9.01,28.57-23.98,32.83ZM148.77,133.63c0-9.23-7.48-16.71-16.71-16.71s-16.71,7.48-16.71,16.71,7.48,16.71,16.71,16.71,16.71-7.48,16.71-16.71Z"/>
  <path class="cls-1" d="M397.46,165.52c-12.56,4.87-27.05,2.05-37.35-6.11-1.72-1.36-2.85-3.49-1.28-5.08l6.41-6.52c1.27-1.29,3.01-.96,4.31.13,8.48,7.09,22.52,6.49,23.25,1.1,1.47-10.81-31.62-4.28-31.79-27.09-.11-14.43,11.87-20.72,25.87-20.31,7.71.23,15.03,2.57,20.59,7.84,1.34,1.27,2.6,3.29,1.04,4.86l-6.67,6.7c-1.48,1.49-3.42.47-4.77-.69-6.57-5.67-18.63-5.05-19.25-.04-1.18,9.45,30.45,3.9,31.63,26.12.44,8.3-3.65,15.88-11.99,19.1Z"/>
  <path class="cls-2" d="M261.39,166.16l-7.98.02c-2.73,0-4.75-2.12-4.75-4.94l-.02-43.14h-9.62c-2.72.01-4.86-1.79-5.1-4.51l.02-6.37c.33-2.43,2.1-4.24,4.61-4.24h10.08s.1-21.81.1-21.81c.01-2.6,2.22-4.49,4.67-4.49h7.75c2.82,0,4.81,2.12,4.81,4.9l-.03,21.39h10.11c2.61,0,4.51,2,4.67,4.56v5.72c-.01,2.66-1.99,4.81-4.68,4.82l-10.11.02.02,43.16c0,2.6-1.66,4.88-4.55,4.89Z"/>
  <path class="cls-2" d="M188.01,166.32l-8.55-.03c-2.13,0-4.36-1.63-4.36-4.11v-86.27c0-2.54,2.17-4.11,4.37-4.12l8.28-.03c2.17,0,4.47,1.59,4.47,4.13v86.28c0,2.38-1.99,3.88-4.2,4.14Z"/>
  <path class="cls-2" d="M219.54,165.39l-8.83.05c-2.3.01-4.4-2.18-4.4-4.67v-53.69c0-2.79,2.32-4.8,4.85-4.81l7.29-.03c2.69-.01,5.21,1.91,5.21,4.83v53.7c0,2.27-1.79,4.6-4.13,4.61Z"/>
  <circle class="cls-1" cx="215" cy="82.38" r="9.89"/>
  <path class="cls-2" d="M117,34.16C109.03,14.63,88.58,2.75,68.64,0l-11.47.17C29.32,3.26,4.12,25.28.2,53.7l-.2,10.14c2.81,16.35,14.81,36.76,27.55,47.78,6.7,5.79,15.78,11.54,17.08,20.83,1.2,8.6-1.17,16.64-6.43,23.29-2.27,2.87-2.55,6.9-1.67,10.14,1.67.7,3.05.75,4.79.74l45.06-.16c2.72,0,5.8-1.01,5.54-4.27-1.27-15.52-7.24-29.7-15.44-42.72-2.9-4.61-4.91-9.14-8.28-13.46-4.82-6.18-9.37-12.29-13.83-18.76-7.79-11.31-13.74-25.04-8.71-38.17,2.44-6.37,7.55-11.07,13.13-12.91,7.17-2.36,14.1-.71,19.81,3.21,4.15,2.85,7.34,6.31,8.48,11.28,1.22,5.28-1.07,10.69-5.95,13.12-3.75,1.87-7.67.36-10.05-2.88-.8-1.08-2.29-.68-3-.28-3.5,1.95-.97,12.79,5.93,19.03,6.87,6.22,16.55,8.66,25.53,5.92,7.14-2.18,12.46-7.45,15.68-14.06,4.77-9.8,5.96-27.17,1.8-37.36ZM37.33,43.6c.76-.47,1.68-.36,2.37-.05,2.36,1.06,2.56,6.36-.84,8.53-1.48.94-3.25.24-3.84-1.18-1.1-2.69-.17-5.76,2.31-7.3ZM34.65,67.55c-2.47-3.23-1.4-8.65,1.64-8.97,1.16-.12,2.21.46,2.98,1.57,2.1,3.05,1.2,8.14-1.79,8.7-.98.18-2.07-.32-2.83-1.31ZM74.4,128.44c.93-.23,1.93.07,2.81.79,4.12,3.37,3.82,9.94.91,11.08-.83.32-2.05.21-2.98-.45-2.97-2.1-4.17-6.1-2.93-9.53.38-1.05,1.39-1.69,2.2-1.89ZM64.2,115.56c.53-1.91,2.62-2.57,4.28-1.63,2.86,1.62,4.32,4.93,3.7,8.18-.34,1.79-2.15,3.01-4.2,2.06-3.22-1.49-4.67-5.4-3.78-8.6ZM54.08,99.91c.65-.37,1.71-.55,2.66-.14,4.65,1.98,5.97,8.2,3.36,10.03-.71.5-1.75.72-2.89.23-4.93-2.15-5.71-8.67-3.13-10.11ZM47.06,87.36c4.29,1.57,5.64,7.66,3.2,9.31-.61.42-1.84.6-2.7.26-2.86-1.12-4.53-4.06-4.29-7.15.14-1.83,1.94-3.1,3.79-2.43ZM43.55,82.17c-.7,1.5-2.68,1.69-3.85.96-2.51-1.58-3.63-4.62-2.9-7.45.26-.99,1.01-1.75,1.64-1.96.91-.31,1.89-.28,2.77.34,2.45,1.72,3.73,5.16,2.34,8.12ZM45.25,40.55c-1.08.23-1.93-.3-2.33-.69-.6-.58-.81-1.44-.63-2.4.44-2.31,2.36-4.18,4.72-4.43.88-.09,1.66.11,2.15.6.35.34.7,1.12.65,1.96-.15,2.4-2.06,4.43-4.56,4.96ZM58.35,33.23c-1.63.56-3.72.59-4.86-.78-.74-.89-.58-2.04-.12-2.81.57-.95,1.37-1.51,2.64-1.96,1.77-.63,4.78-.47,5.14,1.96.29,1.98-1.66,3.2-2.8,3.59ZM76.53,68.3c-.26,1.47-2.08,1.66-3.27,1.37-.87-.22-2.31-.98-2.13-2.44.18-1.38,1.74-1.84,2.8-1.66,1.16.19,2.9,1,2.59,2.73ZM85.12,68.98c-1.03.66-1.84.9-2.73.87-.76-.02-1.98-.67-2.06-1.74-.11-1.43,1.03-2.41,2.04-2.79,1.1-.43,2.64-.61,3.53.42.82.96.3,2.53-.78,3.23ZM72.51,32.65c-2.02.89-4.18.5-5.88-.93-1.03-.86-1.38-2.76-.2-3.72,2.14-1.75,5.57-1.14,7.11,1.09.9,1.31.3,2.97-1.03,3.56ZM83.56,35.97c-.91,1.58-3.31,1.03-4.61.12-1.13-.79-2.69-2.66-1.57-4.33,1.02-1.53,3.3-1.01,4.54-.18,1.21.81,2.75,2.48,1.64,4.39ZM86.29,43.07c-.88-1.24-1.52-3.65,0-4.73,1.56-1.1,3.42.06,4.28,1.37.74,1.11,1.61,3.33.03,4.55-1.6,1.24-3.49-.02-4.32-1.2ZM89.54,63.5c-2.03-.61-1.71-3.43-.64-4.77.65-.82,1.23-1.19,2.07-1.21.98-.02,1.75.46,1.95,1.98.25,1.97-1.34,4.6-3.37,3.99ZM91.43,54.45c-1.33-.48-1.87-1.9-1.96-2.94-.13-1.43.1-2.95,1.56-3.68.98-.49,1.94,0,2.43.56.73.82,1.08,1.7,1.06,3.22-.02,1.88-1.39,3.45-3.09,2.84Z"/>
</svg>