<?xml version="1.0" encoding="UTF-8"?>
<svg id="Livello_1" xmlns="http://www.w3.org/2000/svg" version="1.1" viewBox="0 0 487.22 193.31">
  <!-- Generator: Adobe Illustrator 30.6.0, SVG Export Plug-In . SVG Version: 2.1.4 Build 109)  -->
  <defs>
    <style>
      .st0 {
        fill: #6d97cb;
      }
    </style>
  </defs>
  <path class="st0" d="M359.14,172.04c0,3.31-2.28,5.78-5.27,5.75l-7.4-.07c-2.67-.03-4.42-2.71-4.63-5.63-4.59,4.37-10.22,6.76-16.7,7.05-11.75.53-22.37-5.46-27.83-16.06s-5.36-23.38.06-33.84c7.23-13.96,23.58-19.64,37.86-13.6,2.64,1.12,4.47,2.8,6.61,4.63.29-3.59,2.65-5.72,5.85-5.7l6.28.05c2.92.02,5.13,2.41,5.14,5.43l.02,51.98h.01ZM327.34,163.21c6.59-.16,11.84-3.77,14.18-9.65,1.89-4.73,1.86-10.1-.03-14.83-2.31-5.76-7.48-9.14-13.56-9.51-7-.42-13.26,3.32-15.72,9.98-1.65,4.46-1.65,9.41-.04,13.88,2.32,6.41,8.07,10.3,15.17,10.13h0Z"/>
  <path class="st0" d="M483.84,179.34h-12.29c-1.12,0-2.23-.34-2.95-1.3l-22.05-29.31-.1,27.94c0,1.49-1.59,2.54-2.9,2.68l-11.27-.06c-1.74,0-2.95-1.33-2.95-3.18v-88.14c0-1.79,1.16-3.2,2.85-3.2h11.38c1.34-.02,2.91,1.13,2.91,2.67l.06,57.33,22.75-28.48,13.24-.22c1.35-.02,2.44.74,2.9,1.78.41.94.54,2.31-.33,3.37l-20.56,24.89,21.99,27.94c.83,1.05.85,2.38.42,3.43-.45,1.1-1.64,1.86-3.09,1.86h-.01Z"/>
  <path class="st0" d="M152.1,178.28l-9.9,15.03-9.78-15c-16.14-4.71-26.09-19.97-23.77-36.66,1.4-10.03,7.13-18.22,15.92-23.5,11.03-6.2,24.96-6.23,35.85.36,9.71,5.88,15.33,15.71,15.66,26.94.44,15.24-9.01,28.57-23.98,32.83ZM158.95,146.63c0-9.23-7.48-16.71-16.71-16.71s-16.71,7.48-16.71,16.71,7.48,16.71,16.71,16.71,16.71-7.48,16.71-16.71h0Z"/>
  <path class="st0" d="M407.91,176.96c-12.56,4.87-27.05,2.05-37.35-6.11-1.72-1.36-2.85-3.49-1.28-5.08l6.41-6.52c1.27-1.29,3.01-.96,4.31.13,8.48,7.09,22.52,6.49,23.25,1.1,1.47-10.81-31.62-4.28-31.79-27.09-.11-14.43,11.87-20.72,25.87-20.31,7.71.23,15.03,2.57,20.59,7.84,1.34,1.27,2.6,3.29,1.04,4.86l-6.67,6.7c-1.48,1.49-3.42.47-4.77-.69-6.57-5.67-18.63-5.05-19.25-.04-1.18,9.45,30.45,3.9,31.63,26.12.44,8.3-3.65,15.88-11.99,19.1h0Z"/>
  <path class="st0" d="M271.57,179.16l-7.98.02c-2.73,0-4.75-2.12-4.75-4.94l-.02-43.14h-9.62c-2.72.01-4.86-1.79-5.1-4.51l.02-6.37c.33-2.43,2.1-4.24,4.61-4.24h10.08l.1-21.81c0-2.6,2.22-4.49,4.67-4.49h7.75c2.82,0,4.81,2.12,4.81,4.9l-.03,21.39h10.11c2.61,0,4.51,2,4.67,4.56v5.72c-.01,2.66-1.99,4.81-4.68,4.82l-10.11.02.02,43.16c0,2.6-1.66,4.88-4.55,4.89v.02Z"/>
  <path class="st0" d="M198.19,179.32l-8.55-.03c-2.13,0-4.36-1.63-4.36-4.11v-86.27c0-2.54,2.17-4.11,4.37-4.12l8.28-.03c2.17,0,4.47,1.59,4.47,4.13v86.28c0,2.38-1.99,3.88-4.2,4.14h0Z"/>
  <path class="st0" d="M229.72,179.26l-8.83.05c-2.3,0-4.4-2.18-4.4-4.67v-53.69c0-2.79,2.32-4.8,4.85-4.81l7.29-.03c2.69-.01,5.21,1.91,5.21,4.83v53.7c0,2.27-1.79,4.6-4.13,4.61h0Z"/>
  <circle class="st0" cx="225.18" cy="95.38" r="9.89"/>
  <path class="st0" d="M128.51,31.79C120.05,11.07,97.24,3.07,76.06.07c-.35-.05-.7-.07-1.05-.07l-11.36.17c-.25,0-.5.02-.75.05C33.39,3.65,4.6,25.65.19,55.68c-.05.31-.07.63-.07.95L0,67.5c0,.43.03.85.1,1.27,3.14,17.28,14.42,40.26,31.09,50.36.26.16.51.34.74.54,7.13,6.09,16.55,12.2,17.92,21.98,1.28,9.2-1.25,17.8-6.88,24.91-1.77,2.23-2.24,4.77-2,7.33.18,1.95,1.27,3.74,2.94,4.75.72.43,1.48.72,2.34.72l49-.27c2.91,0,5.45-2.14,5.17-5.63-1.36-16.6-7.74-31.76-16.51-45.69-3.1-4.93-5.25-9.78-8.86-14.4-5.16-6.61-10.02-13.14-14.79-20.06-8.33-12.1-14.7-26.78-9.32-40.82,2.61-6.81,8.07-11.84,14.04-13.81,7.67-2.52,15.08-.76,21.19,3.43,4.44,3.05,7.85,6.75,9.07,12.06,1.3,5.65-1.14,11.43-6.36,14.03-4.01,2-8.2.39-10.75-3.08-.86-1.16-2.45-.73-3.21-.3-3.74,2.09-1.04,13.68,6.34,20.35,7.35,6.65,17.7,9.26,27.3,6.33,7.64-2.33,16.88-12.09,20.33-19.16,5.1-10.48,4.45-28.54,0-39.44l-.4-1.13ZM42.05,46.62c.81-.5,1.8-.39,2.53-.05,2.52,1.13,2.74,6.8-.9,9.12-1.58,1.01-3.48.26-4.11-1.26-1.18-2.88-.18-6.16,2.47-7.81ZM39.18,72.24c-2.64-3.45-1.5-9.25,1.75-9.59,1.24-.13,2.36.49,3.19,1.68,2.25,3.26,1.28,8.71-1.91,9.3-1.05.19-2.21-.34-3.03-1.4h0ZM81.7,137.36c.99-.25,2.06.07,3.01.84,4.41,3.6,4.09,10.63.97,11.85-.89.34-2.19.22-3.19-.48-3.18-2.25-4.46-6.52-3.13-10.19.41-1.12,1.49-1.81,2.35-2.02h-.01ZM70.79,123.59c.57-2.04,2.8-2.75,4.58-1.74,3.06,1.73,4.62,5.27,3.96,8.75-.36,1.91-2.3,3.22-4.49,2.2-3.44-1.59-4.99-5.78-4.04-9.2h0ZM59.96,106.85c.7-.4,1.83-.59,2.84-.15,4.97,2.12,6.38,8.77,3.59,10.73-.76.53-1.87.77-3.09.25-5.27-2.3-6.11-9.27-3.35-10.81h0ZM52.45,93.42c4.59,1.68,6.03,8.19,3.42,9.96-.65.45-1.97.64-2.89.28-3.06-1.2-4.84-4.34-4.59-7.65.15-1.96,2.07-3.32,4.05-2.6h0ZM48.7,87.87c-.75,1.6-2.87,1.81-4.12,1.03-2.68-1.69-3.88-4.94-3.1-7.97.28-1.06,1.08-1.87,1.75-2.1.97-.33,2.02-.3,2.96.36,2.62,1.84,3.99,5.52,2.5,8.68h0ZM50.52,43.36c-1.16.25-2.06-.32-2.49-.74-.64-.62-.87-1.54-.67-2.57.47-2.47,2.52-4.47,5.05-4.74.94-.1,1.78.12,2.3.64.37.36.75,1.2.7,2.1-.16,2.57-2.2,4.74-4.88,5.3ZM64.53,35.53c-1.74.6-3.98.63-5.2-.83-.79-.95-.62-2.18-.13-3.01.61-1.02,1.47-1.61,2.82-2.1,1.89-.67,5.11-.5,5.5,2.1.31,2.12-1.78,3.42-2.99,3.84ZM83.97,73.04c-.28,1.57-2.22,1.78-3.5,1.47-.93-.24-2.47-1.05-2.28-2.61.19-1.48,1.86-1.97,2.99-1.78,1.24.2,3.1,1.07,2.77,2.92h.01ZM93.16,73.77c-1.1.71-1.97.96-2.92.93-.81-.02-2.12-.72-2.2-1.86-.12-1.53,1.1-2.58,2.18-2.98,1.18-.46,2.82-.65,3.78.45.88,1.03.32,2.71-.83,3.45h0ZM79.67,34.91c-2.16.95-4.47.53-6.29-.99-1.1-.92-1.48-2.95-.21-3.98,2.29-1.87,5.96-1.22,7.6,1.17.96,1.4.32,3.18-1.1,3.81ZM91.49,38.46c-.97,1.69-3.54,1.1-4.93.13-1.21-.84-2.88-2.84-1.68-4.63,1.09-1.64,3.53-1.08,4.86-.19,1.29.87,2.94,2.65,1.75,4.7ZM94.41,46.06c-.94-1.33-1.63-3.9,0-5.06,1.67-1.18,3.66.06,4.58,1.47.79,1.19,1.72,3.56.03,4.87-1.71,1.33-3.73-.02-4.62-1.28h.01ZM97.89,67.91c-2.17-.65-1.83-3.67-.68-5.1.7-.88,1.32-1.27,2.21-1.29,1.05-.02,1.87.49,2.09,2.12.27,2.11-1.43,4.92-3.6,4.27h-.01ZM99.91,58.23c-1.42-.51-2-2.03-2.1-3.14-.14-1.53.11-3.16,1.67-3.94,1.05-.52,2.07,0,2.6.6.78.88,1.16,1.82,1.13,3.44-.02,2.01-1.49,3.69-3.3,3.04Z"/>
</svg>