<?xml version="1.0" encoding="UTF-8"?>
<svg id="Livello_1" data-name="Livello 1" xmlns="http://www.w3.org/2000/svg" viewBox="0 0 997.4 381.41">
  <defs>
    <style>
      .cls-1 {
        fill: #f8ad00;
      }

      .cls-2 {
        fill: #0058a5;
      }
    </style>
  </defs>
  <g>
    <path class="cls-1" d="M110.36,337.89c-24.83,0-46.03-4.54-63.58-13.63-17.56-9.08-33.15-22.25-46.78-39.51l29.07-29.07c9.99,13.93,21.49,24.45,34.51,31.56,13.01,7.12,29.07,10.67,48.14,10.67s33.84-4.09,45.19-12.26c11.35-8.18,17.03-19.37,17.03-33.61,0-11.81-2.72-21.34-8.17-28.61-5.45-7.27-12.8-13.24-22.03-17.94-9.24-4.69-19.3-8.93-30.2-12.72-10.9-3.78-21.8-7.87-32.7-12.26-10.9-4.39-20.89-9.83-29.97-16.35-9.08-6.51-16.43-15.06-22.03-25.66-5.61-10.6-8.4-23.91-8.4-39.96,0-17.86,4.31-33.08,12.94-45.64,8.63-12.56,20.44-22.25,35.42-29.07,14.99-6.81,31.86-10.22,50.64-10.22,20.59,0,39.06,4.02,55.41,12.03,16.35,8.03,29.67,18.55,39.97,31.56l-29.07,29.07c-9.39-10.9-19.46-19.07-30.2-24.52-10.75-5.45-23.09-8.17-37.01-8.17-16.96,0-30.43,3.71-40.42,11.12-9.99,7.42-14.99,17.79-14.99,31.11,0,10.6,2.8,19.15,8.4,25.66,5.6,6.52,12.94,12.04,22.03,16.58,9.08,4.54,19.15,8.71,30.2,12.49,11.05,3.79,22.03,7.95,32.92,12.49s20.89,10.3,29.97,17.26c9.08,6.97,16.42,15.98,22.03,27.02,5.6,11.06,8.4,24.91,8.4,41.56,0,27.86-9.62,49.66-28.84,65.4-19.23,15.75-45.19,23.62-77.89,23.62Z"/>
    <path class="cls-1" d="M217.08,150.33v-37.24h147.15v37.24h-147.15ZM270.22,328.81V22.71h40.87v306.1h-40.87Z"/>
    <path class="cls-1" d="M469.59,328.81c-19.68,0-37.55-4.92-53.59-14.76-16.05-9.84-28.69-23.23-37.92-40.19-9.24-16.96-13.85-36.03-13.85-57.22s4.61-40.26,13.85-57.22c9.23-16.96,21.8-30.43,37.69-40.42,15.9-9.99,33.84-14.98,53.82-14.98,16.35,0,30.95,3.41,43.83,10.22,12.86,6.81,23.23,16.2,31.11,28.16,7.87,11.96,12.26,25.82,13.17,41.56v64.94c-.91,15.44-5.22,29.22-12.94,41.33-7.72,12.11-18.02,21.57-30.88,28.38-12.87,6.81-27.63,10.22-44.28,10.22ZM476.41,290.2c20.28,0,36.63-6.88,49.05-20.66,12.41-13.77,18.62-31.41,18.62-52.91,0-14.83-2.8-27.77-8.4-38.83-5.61-11.05-13.55-19.68-23.84-25.89-10.3-6.2-22.25-9.31-35.88-9.31s-25.66,3.18-36.11,9.54c-10.44,6.36-18.62,15.06-24.52,26.11-5.9,11.05-8.86,23.69-8.86,37.92s2.95,27.33,8.86,38.38c5.9,11.05,14.15,19.75,24.75,26.11,10.59,6.36,22.71,9.54,36.33,9.54ZM541.35,324.27v-58.13l7.72-52.68-7.72-52.23v-52.68h41.33v215.72h-41.33Z"/>
    <path class="cls-2" d="M615.91,324.27V0h40.87v324.27h-40.87ZM753.97,324.27l-100.82-110.36,99.91-105.36h53.59l-115.36,116.26,1.82-23.61,113.54,123.07h-52.68Z"/>
    <path class="cls-1" d="M997.4,324.27V0h-40.87v324.27h40.87ZM859.34,324.27l100.82-110.36-99.91-105.36h-53.59l115.36,116.26-1.82-23.61-113.54,123.07h52.68Z"/>
  </g>
  <polygon class="cls-2" points="806.65 108.54 753.04 108.54 806.65 51.4 806.65 108.54"/>
  <polygon class="cls-1" points="806.65 108.54 860.26 108.54 806.65 51.4 806.65 108.54"/>
  <polygon class="cls-2" points="806.65 324.27 753.97 324.27 806.65 381.41 806.65 324.27"/>
  <polygon class="cls-1" points="806.65 324.27 859.34 324.27 806.65 381.41 806.65 324.27"/>
  <polyline class="cls-2" points="863.42 206.6 806.65 268.14 832.99 268.14 883.4 212.96"/>
  <polyline class="cls-2" points="883.4 212.96 833.45 160.28 806.65 160.28 864.33 218.41"/>
  <polyline class="cls-1" points="729.9 212.96 779.86 160.28 806.65 160.28 748.97 218.41 749.88 206.6 806.65 268.14 780.31 268.14 729.9 212.96"/>
  <polygon class="cls-2" points="806.65 160.28 833.46 160.28 806.65 131.71 806.65 160.28"/>
  <polygon class="cls-1" points="806.65 160.28 779.85 160.28 806.65 131.71 806.65 160.28"/>
  <polygon class="cls-2" points="806.65 268.14 832.99 268.14 806.65 296.71 806.65 268.14"/>
  <polygon class="cls-1" points="806.65 268.14 780.31 268.14 806.65 296.71 806.65 268.14"/>
</svg>